<svg width="24" height="24" viewBox="0 0 24 24" fill="none" xmlns="http://www.w3.org/2000/svg">
<g clip-path="url(#clip0_29_153)">
<mask id="mask0_29_153" style="mask-type:luminance" maskUnits="userSpaceOnUse" x="0" y="0" width="24" height="24">
<path d="M0 0H24V24H0V0Z" fill="white"/>
</mask>
<g mask="url(#mask0_29_153)">
<path fill-rule="evenodd" clip-rule="evenodd" d="M10.8599 0.105552C11.6024 -0.0351839 12.3976 -0.0351839 13.1401 0.105552C14.0075 0.269958 14.7541 0.705683 15.9291 1.39143L21.3328 4.54358C21.9512 4.90429 22.4518 5.1963 22.8253 5.45299C23.1961 5.70773 23.5385 5.98999 23.7468 6.36394C24.0844 6.97013 24.0844 7.65487 23.7468 8.26106C23.5385 8.63501 23.1961 8.91728 22.8253 9.17201C22.6302 9.30608 22.4004 9.44981 22.1373 9.60791C22.4045 9.77389 22.6376 9.92452 22.8351 10.065C23.2073 10.3296 23.5467 10.6201 23.7519 11.0012C24.0827 11.6156 24.0827 12.3055 23.7519 12.9199C23.5467 13.301 23.2073 13.5915 22.8351 13.8561C22.6791 13.9671 22.5009 14.0844 22.3012 14.2105C22.5009 14.3367 22.6791 14.454 22.8351 14.565C23.2073 14.8296 23.5467 15.1201 23.7519 15.5012C24.0827 16.1156 24.0827 16.8055 23.7519 17.4199C23.5467 17.801 23.2073 18.0915 22.8351 18.3561C22.4615 18.6217 21.9608 18.9239 21.3424 19.2971L15.9361 22.5598C14.7638 23.2677 14.0154 23.7197 13.1448 23.8904C12.3992 24.0366 11.6008 24.0366 10.8552 23.8904C9.98464 23.7197 9.23617 23.2677 8.06385 22.5598L2.65756 19.2971C2.03919 18.9239 1.53849 18.6217 1.16486 18.3561C0.792683 18.0915 0.453274 17.801 0.248082 17.4199C-0.0826938 16.8055 -0.0826938 16.1156 0.248082 15.5012C0.453274 15.1201 0.792683 14.8296 1.16486 14.565C1.3209 14.454 1.4991 14.3367 1.69878 14.2105C1.4991 14.0844 1.3209 13.9671 1.16486 13.8561C0.792683 13.5915 0.453274 13.301 0.248082 12.9199C-0.0826938 12.3055 -0.0826938 11.6156 0.248082 11.0012C0.453274 10.6201 0.792683 10.3296 1.16486 10.065C1.36241 9.92452 1.59549 9.77389 1.8627 9.60791C1.59957 9.44981 1.3698 9.30608 1.17467 9.17201C0.803944 8.91728 0.461539 8.63501 0.253242 8.26106C-0.0844139 7.65487 -0.0844139 6.97013 0.253242 6.36394C0.461539 5.98999 0.803944 5.70773 1.17467 5.45299C1.54823 5.1963 2.04882 4.90429 2.66721 4.54358L8.07086 1.39142C9.24589 0.705683 9.99247 0.269958 10.8599 0.105552ZM3.13737 15.0867C2.65475 15.3789 2.30009 15.5984 2.03397 15.7875C1.70504 16.0214 1.60383 16.1473 1.56883 16.2123C1.47706 16.3828 1.47706 16.5383 1.56883 16.7088C1.60383 16.7738 1.70504 16.8997 2.03397 17.1336C2.35607 17.3625 2.80791 17.6358 3.45934 18.029L8.72468 21.2067C10.0503 22.0067 10.564 22.3047 11.1439 22.4184C11.6988 22.5272 12.3012 22.5272 12.8561 22.4184C13.436 22.3047 13.9497 22.0067 15.2753 21.2067L20.5407 18.029C21.1921 17.6358 21.6439 17.3625 21.966 17.1336C22.295 16.8997 22.3962 16.7738 22.4312 16.7088C22.523 16.5383 22.523 16.3828 22.4312 16.2123C22.3962 16.1473 22.295 16.0214 21.966 15.7875C21.6999 15.5984 21.3453 15.3789 20.8626 15.0867L15.9361 18.0598C14.7638 18.7677 14.0154 19.2197 13.1448 19.3904C12.3992 19.5366 11.6008 19.5366 10.8552 19.3904C9.98464 19.2197 9.23617 18.7677 8.06385 18.0598L3.13737 15.0867ZM20.6682 10.4691C21.2517 10.8215 21.6654 11.0738 21.966 11.2875C22.295 11.5213 22.3962 11.6473 22.4312 11.7123C22.523 11.8828 22.523 12.0383 22.4312 12.2088C22.3962 12.2738 22.295 12.3997 21.966 12.6336C21.6439 12.8625 21.1921 13.1358 20.5407 13.529L15.2753 16.7067C13.9497 17.5067 13.436 17.8047 12.8561 17.9184C12.3012 18.0272 11.6988 18.0272 11.1439 17.9184C10.564 17.8047 10.0503 17.5067 8.72468 16.7067L3.45934 13.529C2.80791 13.1358 2.35607 12.8625 2.03397 12.6336C1.70504 12.3997 1.60383 12.2738 1.56883 12.2088C1.47706 12.0383 1.47706 11.8828 1.56883 11.7123C1.60383 11.6473 1.70504 11.5213 2.03397 11.2875C2.33462 11.0738 2.7483 10.8215 3.33182 10.4691L8.07086 13.2336C9.24585 13.9193 9.99247 14.355 10.8599 14.5194C11.6024 14.6602 12.3976 14.6602 13.1401 14.5194C14.0075 14.355 14.7541 13.9193 15.9291 13.2336L20.6682 10.4691ZM12.8608 1.57931C12.3028 1.47356 11.6972 1.47356 11.1392 1.57931C10.5553 1.68998 10.0393 1.97976 8.71507 2.75223L3.44972 5.82368C2.79831 6.20366 2.34633 6.46789 2.02416 6.68925C1.69378 6.91627 1.59556 7.03661 1.56367 7.09387C1.47877 7.24627 1.47877 7.37873 1.56367 7.53113C1.59556 7.58839 1.69378 7.70873 2.02416 7.93575C2.34633 8.15711 2.79831 8.42134 3.44972 8.80132L8.71507 11.8728C10.0393 12.6452 10.5553 12.935 11.1392 13.0457C11.6972 13.1514 12.3028 13.1514 12.8608 13.0457C13.4446 12.935 13.9607 12.6452 15.2849 11.8728L20.5503 8.80132C21.2017 8.42134 21.6537 8.15711 21.9759 7.93575C22.3062 7.70873 22.4044 7.58839 22.4363 7.53113C22.5212 7.37873 22.5212 7.24627 22.4363 7.09387C22.4044 7.03661 22.3062 6.91627 21.9759 6.68925C21.6537 6.46789 21.2017 6.20366 20.5503 5.82368L15.2849 2.75223C13.9607 1.97976 13.4446 1.68998 12.8608 1.57931Z" fill="white"/>
</g>
</g>
<defs>
<clipPath id="clip0_29_153">
<rect width="24" height="24" fill="white"/>
</clipPath>
</defs>
</svg>
