<svg width="31" height="21" viewBox="0 0 31 21" fill="none" xmlns="http://www.w3.org/2000/svg">
<g clip-path="url(#clip0_99_3828)">
<path d="M17.6521 15.3322L16.4452 13.5959C16.2804 13.3598 16.1918 13.0791 16.1911 12.7912V7.80818C16.1911 5.93623 15.4475 4.14096 14.1238 2.81729C12.8001 1.49363 11.0049 0.75 9.13291 0.75C7.26097 0.75 5.4657 1.49363 4.14203 2.81729C2.81837 4.14096 2.07474 5.93623 2.07474 7.80818V12.7912C2.07406 13.0791 1.9854 13.3598 1.82064 13.5959L0.613697 15.3322C0.430946 15.5347 0.310772 15.7858 0.267707 16.0551C0.224641 16.3245 0.260529 16.6005 0.371031 16.8499C0.481532 17.0993 0.661915 17.3113 0.890364 17.4603C1.11881 17.6093 1.38555 17.689 1.65831 17.6896H5.67441C5.8364 18.4874 6.26922 19.2046 6.89953 19.7198C7.52983 20.235 8.31886 20.5164 9.13291 20.5164C9.94697 20.5164 10.736 20.235 11.3663 19.7198C11.9966 19.2046 12.4294 18.4874 12.5914 17.6896H16.6075C16.8803 17.689 17.147 17.6093 17.3755 17.4603C17.6039 17.3113 17.7843 17.0993 17.8948 16.8499C18.0053 16.6005 18.0412 16.3245 17.9981 16.0551C17.9551 15.7858 17.8349 15.5347 17.6521 15.3322ZM9.13291 19.1013C8.69605 19.1 8.27026 18.9637 7.91392 18.711C7.55758 18.4583 7.28813 18.1015 7.14251 17.6896H11.1233C10.9777 18.1015 10.7082 18.4583 10.3519 18.711C9.99556 18.9637 9.56978 19.1 9.13291 19.1013ZM1.65831 16.278C1.69021 16.2484 1.71863 16.2152 1.743 16.1792L2.97819 14.4005C3.30769 13.9284 3.48501 13.3669 3.48637 12.7912V7.80818C3.48637 6.31062 4.08128 4.8744 5.14021 3.81547C6.19914 2.75654 7.63536 2.16164 9.13291 2.16164C10.6305 2.16164 12.0667 2.75654 13.1256 3.81547C14.1846 4.8744 14.7795 6.31062 14.7795 7.80818V12.7912C14.7808 13.3669 14.9581 13.9284 15.2876 14.4005L16.5228 16.1792C16.5472 16.2152 16.5756 16.2484 16.6075 16.278H1.65831Z" fill="white"/>
</g>
<defs>
<clipPath id="clip0_99_3828">
<rect width="30" height="19.7664" fill="white" transform="translate(0.25 0.75)"/>
</clipPath>
</defs>
</svg>
