<svg width="121" height="33" viewBox="0 0 121 33" fill="none" xmlns="http://www.w3.org/2000/svg">
<g clip-path="url(#clip0_29_105)">
<path d="M6.15581 6.43684V14.2625H17.1877V19.9719H6.15581V32.4268H0V0.727417H18.5777V6.43684H6.15581Z" fill="#4F48ED"/>
<path d="M22.4389 3.04208C22.4389 2.43511 22.6194 1.84183 22.9574 1.33747C23.2953 0.83311 23.7756 0.440399 24.3373 0.209144C24.899 -0.0221102 25.5168 -0.0814893 26.1123 0.0385385C26.7078 0.158566 27.2542 0.452593 27.6822 0.883327C28.1102 1.31406 28.4006 1.8621 28.5164 2.45792C28.6322 3.05375 28.5683 3.67053 28.3328 4.23002C28.0973 4.78952 27.7008 5.26653 27.1936 5.60056C26.6863 5.93458 26.0912 6.11057 25.4837 6.10621C25.082 6.10622 24.6843 6.02681 24.3134 5.87255C23.9426 5.7183 23.6059 5.49224 23.3229 5.20742C23.0399 4.9226 22.816 4.58463 22.6643 4.213C22.5126 3.84137 22.436 3.44342 22.4389 3.04208ZM22.6154 9.45691H28.3741V32.4268H22.6154V9.45691Z" fill="#4F48ED"/>
<path d="M53.3283 18.4729V32.4268H47.5696V19.6412C47.5696 16.7094 46.3341 14.4829 43.1569 14.4829C42.4841 14.4584 41.8139 14.5771 41.1907 14.8313C40.5674 15.0855 40.0055 15.4693 39.5422 15.9572C39.0789 16.4452 38.7248 17.026 38.5035 17.6612C38.2822 18.2964 38.1988 18.9714 38.2587 19.6412V32.4268H32.478V9.45688H38.1925V12.2785C38.9165 11.2007 39.9053 10.3266 41.0643 9.73991C42.2233 9.15323 43.5136 8.87361 44.8116 8.92782C50.7468 8.92782 53.3283 13.6232 53.3283 18.4729Z" fill="#4F48ED"/>
<path d="M81.4597 0.727417V32.4268H75.701V29.7595C74.8315 30.8476 73.7164 31.7145 72.447 32.2892C71.1776 32.864 69.79 33.1302 68.3979 33.0661C61.2713 33.0661 57.2115 27.0481 57.2115 21.03C57.2115 15.012 61.2271 8.92782 68.3979 8.92782C69.7936 8.85143 71.1876 9.10739 72.465 9.6746C73.7423 10.2418 74.8666 11.1041 75.7451 12.1903V0.727417H81.4597ZM75.4142 20.9639C75.4142 19.3269 74.7633 17.7569 73.6047 16.5994C72.4461 15.4418 70.8748 14.7915 69.2363 14.7915C67.5978 14.7915 66.0265 15.4418 64.8679 16.5994C63.7093 17.7569 63.0584 19.3269 63.0584 20.9639C63.0584 22.6009 63.7093 24.1709 64.8679 25.3284C66.0265 26.4859 67.5978 27.1362 69.2363 27.1362C70.8748 27.1362 72.4461 26.4859 73.6047 25.3284C74.7633 24.1709 75.4142 22.6009 75.4142 20.9639Z" fill="#4F48ED"/>
<path d="M115.482 14.7254V23.1022C115.482 25.7254 115.835 27.2685 119.012 27.2685C119.468 27.3013 119.925 27.3013 120.38 27.2685V32.5371C119.6 32.7658 118.788 32.87 117.975 32.8457C112.084 32.8457 109.723 28.8998 109.723 24.1603V14.7254H106.458V9.45691H109.723V4.67334H115.482V9.45691H120.38V14.7254H115.482Z" fill="#4F48ED"/>
<path d="M93.9037 18.5831C92.1582 18.5831 90.4518 18.066 89.0005 17.0971C87.5491 16.1282 86.4179 14.7511 85.75 13.1399C85.082 11.5287 84.9072 9.75573 85.2477 8.04528C85.5883 6.33483 86.4288 4.76367 87.6631 3.53051C88.8974 2.29734 90.4699 1.45754 92.1819 1.11731C93.8939 0.777078 95.6684 0.951696 97.2811 1.61908C98.8937 2.28647 100.272 3.41665 101.242 4.8667C102.212 6.31675 102.729 8.02155 102.729 9.76551C102.729 12.1041 101.799 14.3469 100.144 16.0005C98.4892 17.6541 96.2444 18.5831 93.9037 18.5831ZM93.9037 3.59317C92.6712 3.58881 91.4652 3.95025 90.4387 4.63164C89.4121 5.31303 88.6112 6.28368 88.1375 7.42048C87.6638 8.55728 87.5388 9.80901 87.7781 11.0169C88.0175 12.2249 88.6106 13.3345 89.482 14.2052C90.3535 15.076 91.4642 15.6685 92.6732 15.9076C93.8822 16.1468 95.1351 16.0218 96.2729 15.5486C97.4107 15.0753 98.3822 14.2752 99.0642 13.2495C99.7462 12.2238 100.108 11.0189 100.104 9.78756C100.104 8.1447 99.4504 6.56914 98.2877 5.40746C97.125 4.24579 95.548 3.59317 93.9037 3.59317Z" fill="#4F48ED"/>
<path d="M98.7136 11.022C98.6441 11.022 98.5752 11.0083 98.511 10.9817C98.4467 10.9551 98.3883 10.9162 98.3392 10.867C98.29 10.8179 98.251 10.7596 98.2244 10.6954C98.1978 10.6312 98.1841 10.5624 98.1841 10.4929C98.1783 9.27283 97.6906 8.10433 96.827 7.24156C95.9635 6.37879 94.7939 5.89153 93.5727 5.88573C93.5032 5.88573 93.4343 5.87205 93.3701 5.84546C93.3058 5.81887 93.2475 5.7799 93.1983 5.73078C93.1491 5.68165 93.1101 5.62333 93.0835 5.55914C93.0569 5.49495 93.0432 5.42615 93.0432 5.35668C93.0431 5.2882 93.0569 5.22042 93.0838 5.15742C93.1107 5.09442 93.1501 5.03752 93.1995 4.99014C93.249 4.94276 93.3076 4.90588 93.3717 4.88174C93.4359 4.8576 93.5043 4.84668 93.5727 4.84966C95.067 4.83198 96.5074 5.40667 97.5785 6.44786C98.6496 7.48906 99.264 8.91189 99.2873 10.4048C99.3064 10.4858 99.3053 10.5703 99.284 10.6508C99.2627 10.7313 99.2219 10.8053 99.1652 10.8663C99.1085 10.9273 99.0377 10.9734 98.9589 11.0006C98.8801 11.0277 98.7959 11.0351 98.7136 11.022Z" fill="#4F48ED"/>
<path d="M95.8012 17.2825H92.0062V32.4268H95.8012V17.2825Z" fill="#4F48ED"/>
</g>
<defs>
<clipPath id="clip0_29_105">
<rect width="120.38" height="33" fill="white"/>
</clipPath>
</defs>
</svg>
