<svg width="24" height="24" viewBox="0 0 24 24" fill="none" xmlns="http://www.w3.org/2000/svg">
<g clip-path="url(#clip0_29_150)">
<path d="M21.1875 9.1875H14.8125V2.8125C14.8125 1.26169 13.5508 0 12 0C10.4492 0 9.1875 1.26169 9.1875 2.8125V9.1875H2.8125C1.26169 9.1875 0 10.4492 0 12C0 13.5508 1.26169 14.8125 2.8125 14.8125H9.1875V21.1875C9.1875 22.7383 10.4492 24 12 24C13.5508 24 14.8125 22.7383 14.8125 21.1875V14.8125H21.1875C22.7383 14.8125 24 13.5508 24 12C24 10.4492 22.7383 9.1875 21.1875 9.1875ZM21.1875 13.4062H14.1094C13.7211 13.4062 13.4062 13.7211 13.4062 14.1094V21.1875C13.4062 21.9629 12.7754 22.5938 12 22.5938C11.2246 22.5938 10.5938 21.9629 10.5938 21.1875V14.1094C10.5938 13.7211 10.2789 13.4062 9.89062 13.4062H2.8125C2.03709 13.4062 1.40625 12.7754 1.40625 12C1.40625 11.2246 2.03709 10.5938 2.8125 10.5938H9.89062C10.2789 10.5938 10.5938 10.2789 10.5938 9.89062V2.8125C10.5938 2.03709 11.2246 1.40625 12 1.40625C12.7754 1.40625 13.4062 2.03709 13.4062 2.8125V9.89062C13.4062 10.2789 13.7211 10.5938 14.1094 10.5938H21.1875C21.9629 10.5938 22.5938 11.2246 22.5938 12C22.5938 12.7754 21.9629 13.4062 21.1875 13.4062Z" fill="white"/>
</g>
<defs>
<clipPath id="clip0_29_150">
<rect width="24" height="24" fill="white"/>
</clipPath>
</defs>
</svg>
